<mxfile host="app.diagrams.net" modified="2023-05-30T01:22:38.056Z" agent="Mozilla/5.0 (Macintosh; Intel Mac OS X 10_15_7) AppleWebKit/537.36 (KHTML, like Gecko) Chrome/113.0.0.0 Safari/537.36" etag="CHgO8EwMmsJmxAlxDq2R" version="21.3.5" type="github">
  <diagram id="kgpKYQtTHZ0yAKxKKP6v" name="Page-1">
    <mxGraphModel dx="844" dy="743" grid="1" gridSize="10" guides="1" tooltips="1" connect="1" arrows="1" fold="1" page="1" pageScale="1" pageWidth="850" pageHeight="1100" math="0" shadow="0">
      <root>
        <mxCell id="0" />
        <mxCell id="1" parent="0" />
        <mxCell id="3nuBFxr9cyL0pnOWT2aG-1" value="Sistema de producción" style="shape=table;childLayout=tableLayout;startSize=30;collapsible=0;recursiveResize=0;expand=0;fillColor=none;fontStyle=1;movable=1;resizable=1;rotatable=1;deletable=1;editable=1;locked=0;connectable=1;" parent="1" vertex="1">
          <mxGeometry x="40" y="110" width="780" height="262" as="geometry" />
        </mxCell>
        <mxCell id="3nuBFxr9cyL0pnOWT2aG-3" value="" style="shape=tableRow;horizontal=0;swimlaneHead=0;swimlaneBody=0;top=0;left=0;bottom=0;right=0;fillColor=none;points=[[0,0.5],[1,0.5]];portConstraint=eastwest;startSize=40;collapsible=0;recursiveResize=0;expand=0;fontStyle=1;movable=0;resizable=0;rotatable=0;deletable=0;editable=0;locked=1;connectable=0;swimlaneLine=0;" parent="3nuBFxr9cyL0pnOWT2aG-1" vertex="1">
          <mxGeometry y="30" width="780" height="232" as="geometry" />
        </mxCell>
        <mxCell id="3nuBFxr9cyL0pnOWT2aG-4" value="" style="swimlane;swimlaneHead=0;swimlaneBody=0;connectable=0;fillColor=#ffe6cc;startSize=50;collapsible=0;recursiveResize=0;expand=0;fontStyle=1;strokeColor=#d79b00;" parent="3nuBFxr9cyL0pnOWT2aG-3" vertex="1">
          <mxGeometry x="40" width="153" height="232" as="geometry">
            <mxRectangle width="153" height="232" as="alternateBounds" />
          </mxGeometry>
        </mxCell>
        <mxCell id="3nuBFxr9cyL0pnOWT2aG-7" value="&lt;ul&gt;&lt;li&gt;Trabajadores&lt;/li&gt;&lt;li&gt;Directivos&lt;/li&gt;&lt;li&gt;Proveedores&lt;/li&gt;&lt;li&gt;Acreedores&lt;/li&gt;&lt;li&gt;OTros&lt;/li&gt;&lt;/ul&gt;" style="rounded=0;whiteSpace=wrap;html=1;align=left;" parent="3nuBFxr9cyL0pnOWT2aG-4" vertex="1">
          <mxGeometry x="10" y="67" width="120" height="110" as="geometry" />
        </mxCell>
        <mxCell id="-khxD7FgB1TAVh25OusH-13" value="&lt;font style=&quot;font-size: 12px;&quot;&gt;&lt;b&gt;Fuentes de aprovisionamiento&lt;/b&gt;&lt;/font&gt;" style="text;html=1;strokeColor=none;fillColor=none;align=center;verticalAlign=middle;whiteSpace=wrap;rounded=0;fontSize=16;spacing=0;" vertex="1" parent="3nuBFxr9cyL0pnOWT2aG-4">
          <mxGeometry x="10" y="10" width="120" height="30" as="geometry" />
        </mxCell>
        <mxCell id="3nuBFxr9cyL0pnOWT2aG-8" value="" style="swimlane;swimlaneHead=0;swimlaneBody=0;connectable=0;fillColor=#d5e8d4;startSize=50;collapsible=0;recursiveResize=0;expand=0;fontStyle=1;strokeColor=#82b366;" parent="3nuBFxr9cyL0pnOWT2aG-3" vertex="1">
          <mxGeometry x="193" width="452" height="232" as="geometry">
            <mxRectangle width="452" height="232" as="alternateBounds" />
          </mxGeometry>
        </mxCell>
        <mxCell id="-khxD7FgB1TAVh25OusH-8" style="edgeStyle=none;curved=1;rounded=0;orthogonalLoop=1;jettySize=auto;html=1;entryX=0;entryY=0.5;entryDx=0;entryDy=0;fontSize=12;startSize=8;endSize=8;" edge="1" parent="3nuBFxr9cyL0pnOWT2aG-8" source="3nuBFxr9cyL0pnOWT2aG-9" target="3nuBFxr9cyL0pnOWT2aG-10">
          <mxGeometry relative="1" as="geometry" />
        </mxCell>
        <mxCell id="3nuBFxr9cyL0pnOWT2aG-9" value="&lt;ul&gt;&lt;li&gt;Mano de obra&lt;/li&gt;&lt;li&gt;Energía&amp;nbsp;&lt;/li&gt;&lt;li&gt;Capital&lt;/li&gt;&lt;li&gt;Materias primas&lt;/li&gt;&lt;li&gt;Otros&lt;/li&gt;&lt;/ul&gt;" style="rounded=0;whiteSpace=wrap;html=1;align=left;" parent="3nuBFxr9cyL0pnOWT2aG-8" vertex="1">
          <mxGeometry x="13" y="67" width="117" height="110" as="geometry" />
        </mxCell>
        <mxCell id="-khxD7FgB1TAVh25OusH-11" style="edgeStyle=none;curved=1;rounded=0;orthogonalLoop=1;jettySize=auto;html=1;entryX=0;entryY=0.5;entryDx=0;entryDy=0;fontSize=12;startSize=8;endSize=8;" edge="1" parent="3nuBFxr9cyL0pnOWT2aG-8" source="3nuBFxr9cyL0pnOWT2aG-10" target="-khxD7FgB1TAVh25OusH-10">
          <mxGeometry relative="1" as="geometry" />
        </mxCell>
        <mxCell id="3nuBFxr9cyL0pnOWT2aG-10" value="&lt;ul&gt;&lt;li&gt;Tecnología&lt;/li&gt;&lt;li&gt;Instalaciones&lt;/li&gt;&lt;li&gt;Procesos productivos&lt;/li&gt;&lt;li&gt;otros&lt;/li&gt;&lt;/ul&gt;" style="rounded=0;whiteSpace=wrap;html=1;align=left;spacing=2;" parent="3nuBFxr9cyL0pnOWT2aG-8" vertex="1">
          <mxGeometry x="153" y="67" width="120" height="110" as="geometry" />
        </mxCell>
        <mxCell id="-khxD7FgB1TAVh25OusH-5" style="edgeStyle=none;curved=1;rounded=0;orthogonalLoop=1;jettySize=auto;html=1;exitX=1;exitY=0.5;exitDx=0;exitDy=0;fontSize=12;startSize=8;endSize=8;" edge="1" parent="3nuBFxr9cyL0pnOWT2aG-8" source="3nuBFxr9cyL0pnOWT2aG-9" target="3nuBFxr9cyL0pnOWT2aG-9">
          <mxGeometry relative="1" as="geometry" />
        </mxCell>
        <mxCell id="-khxD7FgB1TAVh25OusH-6" style="edgeStyle=none;curved=1;rounded=0;orthogonalLoop=1;jettySize=auto;html=1;exitX=1;exitY=1;exitDx=0;exitDy=0;fontSize=12;startSize=8;endSize=8;" edge="1" parent="3nuBFxr9cyL0pnOWT2aG-8" source="3nuBFxr9cyL0pnOWT2aG-9" target="3nuBFxr9cyL0pnOWT2aG-9">
          <mxGeometry relative="1" as="geometry" />
        </mxCell>
        <mxCell id="-khxD7FgB1TAVh25OusH-7" style="edgeStyle=none;curved=1;rounded=0;orthogonalLoop=1;jettySize=auto;html=1;exitX=1;exitY=0.25;exitDx=0;exitDy=0;fontSize=12;startSize=8;endSize=8;" edge="1" parent="3nuBFxr9cyL0pnOWT2aG-8" source="3nuBFxr9cyL0pnOWT2aG-9" target="3nuBFxr9cyL0pnOWT2aG-9">
          <mxGeometry relative="1" as="geometry" />
        </mxCell>
        <mxCell id="-khxD7FgB1TAVh25OusH-10" value="&lt;ul&gt;&lt;li style=&quot;border-color: var(--border-color);&quot;&gt;Bienes&lt;/li&gt;&lt;li style=&quot;border-color: var(--border-color);&quot;&gt;Servicios&lt;/li&gt;&lt;/ul&gt;" style="rounded=0;whiteSpace=wrap;html=1;align=left;spacing=2;" vertex="1" parent="3nuBFxr9cyL0pnOWT2aG-8">
          <mxGeometry x="296" y="67" width="120" height="110" as="geometry" />
        </mxCell>
        <mxCell id="-khxD7FgB1TAVh25OusH-12" value="&lt;font style=&quot;font-size: 12px;&quot;&gt;&lt;b&gt;Entradas&lt;/b&gt;&lt;/font&gt;" style="text;html=1;strokeColor=none;fillColor=none;align=center;verticalAlign=middle;whiteSpace=wrap;rounded=0;fontSize=16;" vertex="1" parent="3nuBFxr9cyL0pnOWT2aG-8">
          <mxGeometry x="41.5" y="10" width="60" height="30" as="geometry" />
        </mxCell>
        <mxCell id="-khxD7FgB1TAVh25OusH-14" value="&lt;font style=&quot;font-size: 12px;&quot;&gt;&lt;b&gt;Proceso de transformación&lt;/b&gt;&lt;/font&gt;" style="text;html=1;strokeColor=none;fillColor=none;align=center;verticalAlign=middle;whiteSpace=wrap;rounded=0;fontSize=16;" vertex="1" parent="3nuBFxr9cyL0pnOWT2aG-8">
          <mxGeometry x="150" y="10" width="120" height="30" as="geometry" />
        </mxCell>
        <mxCell id="-khxD7FgB1TAVh25OusH-15" value="&lt;font style=&quot;font-size: 12px;&quot;&gt;&lt;b&gt;Salidas&lt;/b&gt;&lt;/font&gt;" style="text;html=1;strokeColor=none;fillColor=none;align=center;verticalAlign=middle;whiteSpace=wrap;rounded=0;fontSize=16;" vertex="1" parent="3nuBFxr9cyL0pnOWT2aG-8">
          <mxGeometry x="296" y="10" width="120" height="30" as="geometry" />
        </mxCell>
        <mxCell id="3nuBFxr9cyL0pnOWT2aG-11" value="" style="swimlane;swimlaneHead=0;swimlaneBody=0;connectable=0;fillColor=#ffe6cc;startSize=50;collapsible=0;recursiveResize=0;expand=0;fontStyle=1;strokeColor=#d79b00;" parent="3nuBFxr9cyL0pnOWT2aG-3" vertex="1">
          <mxGeometry x="645" width="135" height="232" as="geometry">
            <mxRectangle width="135" height="232" as="alternateBounds" />
          </mxGeometry>
        </mxCell>
        <mxCell id="-khxD7FgB1TAVh25OusH-16" value="&lt;font style=&quot;font-size: 12px;&quot;&gt;&lt;b&gt;Mercados&lt;/b&gt;&lt;/font&gt;" style="text;html=1;strokeColor=none;fillColor=none;align=center;verticalAlign=middle;whiteSpace=wrap;rounded=0;fontSize=16;" vertex="1" parent="3nuBFxr9cyL0pnOWT2aG-11">
          <mxGeometry x="5" y="10" width="120" height="30" as="geometry" />
        </mxCell>
        <mxCell id="-khxD7FgB1TAVh25OusH-17" value="&lt;ul&gt;&lt;li style=&quot;border-color: var(--border-color);&quot;&gt;Mercados&lt;/li&gt;&lt;/ul&gt;" style="rounded=0;whiteSpace=wrap;html=1;align=left;spacing=2;" vertex="1" parent="3nuBFxr9cyL0pnOWT2aG-11">
          <mxGeometry x="10" y="94.5" width="110" height="43" as="geometry" />
        </mxCell>
        <mxCell id="-khxD7FgB1TAVh25OusH-4" style="edgeStyle=none;curved=1;rounded=0;orthogonalLoop=1;jettySize=auto;html=1;exitX=1;exitY=0.5;exitDx=0;exitDy=0;fontSize=12;startSize=8;endSize=8;" edge="1" parent="3nuBFxr9cyL0pnOWT2aG-3" source="3nuBFxr9cyL0pnOWT2aG-7" target="3nuBFxr9cyL0pnOWT2aG-9">
          <mxGeometry relative="1" as="geometry" />
        </mxCell>
        <mxCell id="-khxD7FgB1TAVh25OusH-18" style="edgeStyle=none;curved=1;rounded=0;orthogonalLoop=1;jettySize=auto;html=1;fontSize=12;startSize=8;endSize=8;" edge="1" parent="3nuBFxr9cyL0pnOWT2aG-3" source="-khxD7FgB1TAVh25OusH-10" target="-khxD7FgB1TAVh25OusH-17">
          <mxGeometry relative="1" as="geometry" />
        </mxCell>
      </root>
    </mxGraphModel>
  </diagram>
</mxfile>
